<svg xmlns="http://www.w3.org/2000/svg" viewBox="0 0 240 56">
  <!-- Layered Shield Icon (White version) -->
  <g transform="translate(4, 4)">
    <!-- Back layer -->
    <path d="M24 2L42 8v14c0 10-7.2 18.4-18 22-10.8-3.6-18-12-18-22V8L24 2z"
          fill="#ffffff" transform="translate(3, 4) scale(0.88)" opacity="0.3"/>

    <!-- Middle layer -->
    <path d="M24 2L42 8v14c0 10-7.2 18.4-18 22-10.8-3.6-18-12-18-22V8L24 2z"
          fill="#ffffff" transform="translate(1.5, 2) scale(0.94)" opacity="0.5"/>

    <!-- Front shield -->
    <path d="M24 2L42 8v14c0 10-7.2 18.4-18 22-10.8-3.6-18-12-18-22V8L24 2z"
          fill="#ffffff"/>

    <!-- Checkmark -->
    <path d="M15 24l6 6 12-14"
          stroke="#4f46e5" stroke-width="3.5" stroke-linecap="round" stroke-linejoin="round" fill="none"/>
  </g>

  <!-- Company Name -->
  <g transform="translate(60, 0)">
    <text x="0" y="36" font-family="system-ui, -apple-system, BlinkMacSystemFont, 'Segoe UI', sans-serif"
          font-size="28" font-weight="700" letter-spacing="-0.5" fill="#ffffff">
      TrustLayer
    </text>
  </g>
</svg>
